# xmcd
#
# Track frame offsets: 
#        150
#        15825
#        32925
#        47775
#        62325
#        89437
#        98924
#        121236
#        137361
#        155511
#        173661
#        191773
#        214273
#        234973
#        250423
#
# Disc length: 3528 seconds
#
# Revision: 0
# Processed by: cddbd v1.5.2PL0 Copyright (c) Steve Scherf et al.
# Submitted via: ExactAudioCopyFreeDBPlugin 1.0
#
DISCID=bf0dc60f
DTITLE=Ken and Lyn Mikell - Red Wing
DYEAR=2013
DGENRE=Folk
TTITLE0=Red Wing
TTITLE1=Blue Mountain
TTITLE2=Beautiful Dreamer
TTITLE3=My Love is a Rider
TTITLE4=Old Paint
TTITLE5=Stetson Hat
TTITLE6=Red River Valley
TTITLE7=Santa Fe Trail
TTITLE8=Letter from Home
TTITLE9=Old Dolores
TTITLE10=SP Railroad
TTITLE11=Rivers of Texas
TTITLE12=Shenandoah
TTITLE13=Zebra Dun
TTITLE14=Home on the Range
EXTD=
EXTT0=
EXTT1=
EXTT2=
EXTT3=
EXTT4=
EXTT5=
EXTT6=
EXTT7=
EXTT8=
EXTT9=
EXTT10=
EXTT11=
EXTT12=
EXTT13=
EXTT14=
PLAYORDER=
